<svg xmlns="http://www.w3.org/2000/svg" viewBox="0 0 64 64">
  <rect width="64" height="64" rx="14" fill="#ff7a18"/>
  <path fill="#050505" d="M18.2 43.2c3.5 2.1 8 3.3 12.9 3.3 6.7 0 11.6-2.8 11.6-8.1 0-4.8-3.7-6.8-10.6-8.2-4.4-.9-6.2-1.5-6.2-3.1 0-1.5 1.6-2.5 4.7-2.5 3.3 0 6.5.9 9.6 2.7l2.3-6.3c-3.2-1.9-7.1-2.9-11.7-2.9-7 0-11.7 3.4-11.7 8.6 0 5.1 4.2 7.2 10.8 8.5 4.3.8 5.9 1.4 5.9 2.9 0 1.5-1.7 2.3-4.9 2.3-3.8 0-7.4-1-10.8-3.1l-1.9 5.9Z"/>
  <path fill="#050505" d="M45.8 44.9h4.1v4.1h-4.1z"/>
</svg>
